<?xml version="1.0" encoding="utf-8"?>
<!-- Generator: Adobe Illustrator 27.8.1, SVG Export Plug-In . SVG Version: 6.00 Build 0)  -->
<svg version="1.1" id="Layer_1" xmlns="http://www.w3.org/2000/svg" xmlns:xlink="http://www.w3.org/1999/xlink" x="0px" y="0px"
	 viewBox="0 0 258 44" style="enable-background:new 0 0 258 44;" xml:space="preserve">
<style type="text/css">
	.st0{fill:url(#SVGID_1_);}
	.st1{fill:url(#SVGID_00000121251602227163240960000002405600283025351825_);}
	.st2{fill:url(#SVGID_00000050641028128846450010000017466277711120288441_);}
	.st3{fill:url(#SVGID_00000176755852235949491360000018269696205735174049_);}
	.st4{fill:url(#SVGID_00000078748455819626167170000012033901058422358165_);}
	.st5{fill:url(#SVGID_00000038373949304785271310000015490761186980370843_);}
	.st6{fill:url(#SVGID_00000121251943312054414410000004839861224785623937_);}
	.st7{fill:url(#SVGID_00000171715644719975218520000007866265368013978534_);}
	.st8{fill:url(#SVGID_00000022527471411225211550000018190882172482971266_);}
	.st9{fill:url(#SVGID_00000145059975858330144260000007984364821249283518_);}
	.st10{fill:url(#SVGID_00000055682442493032152620000012153896158028397984_);}
	.st11{fill:url(#SVGID_00000145023871829648000860000013909053286577482389_);}
	.st12{fill:url(#SVGID_00000021114076136510689240000016800933467850588046_);}
	.st13{fill:url(#SVGID_00000101079234686305717750000015798394151194722183_);}
	.st14{fill:url(#SVGID_00000124149833677217598600000005213697951101072308_);}
	.st15{fill:url(#SVGID_00000151508673012203982710000001530918563918912183_);}
</style>
<g>
	<g>
		<g>
			<linearGradient id="SVGID_1_" gradientUnits="userSpaceOnUse" x1="-3.1833" y1="0.6002" x2="44.62" y2="28.2049">
				<stop  offset="0" style="stop-color:#7F53D3"/>
				<stop  offset="0.3223" style="stop-color:#7278E5"/>
				<stop  offset="0.662" style="stop-color:#88CEE8"/>
				<stop  offset="1" style="stop-color:#F2E2AE"/>
			</linearGradient>
			<circle class="st0" cx="18.35" cy="13.03" r="5.04"/>
			
				<linearGradient id="SVGID_00000095304677908352982780000005114805039388099005_" gradientUnits="userSpaceOnUse" x1="-6.2516" y1="5.9136" x2="41.5516" y2="33.5183">
				<stop  offset="0" style="stop-color:#7F53D3"/>
				<stop  offset="0.3223" style="stop-color:#7278E5"/>
				<stop  offset="0.662" style="stop-color:#88CEE8"/>
				<stop  offset="1" style="stop-color:#F2E2AE"/>
			</linearGradient>
			<path style="fill:url(#SVGID_00000095304677908352982780000005114805039388099005_);" d="M7.76,21.69
				c4.01,4.9,10.74,6.28,16.23,3.73l-2.74-3.35c-3.61,1.19-7.74,0.12-10.29-3S8.17,11.7,10.06,8.4L7.32,5.05
				C3.74,9.93,3.75,16.79,7.76,21.69z"/>
		</g>
		<g>
			
				<linearGradient id="SVGID_00000182529730877303154960000008470833109954816167_" gradientUnits="userSpaceOnUse" x1="-8.6727" y1="10.1063" x2="39.1305" y2="37.711">
				<stop  offset="0" style="stop-color:#7F53D3"/>
				<stop  offset="0.3223" style="stop-color:#7278E5"/>
				<stop  offset="0.662" style="stop-color:#88CEE8"/>
				<stop  offset="1" style="stop-color:#F2E2AE"/>
			</linearGradient>
			<circle style="fill:url(#SVGID_00000182529730877303154960000008470833109954816167_);" cx="30.09" cy="32.49" r="5.04"/>
			
				<linearGradient id="SVGID_00000160909776353294812460000003835773075967548856_" gradientUnits="userSpaceOnUse" x1="-5.6811" y1="4.9258" x2="42.1221" y2="32.5304">
				<stop  offset="0" style="stop-color:#7F53D3"/>
				<stop  offset="0.3223" style="stop-color:#7278E5"/>
				<stop  offset="0.662" style="stop-color:#88CEE8"/>
				<stop  offset="1" style="stop-color:#F2E2AE"/>
			</linearGradient>
			<path style="fill:url(#SVGID_00000160909776353294812460000003835773075967548856_);" d="M24.32,20.2l2.74,3.35
				c3.61-1.19,7.74-0.12,10.29,3s2.78,7.38,0.9,10.68l2.74,3.35c3.58-4.88,3.56-11.74-0.45-16.64
				C36.53,19.03,29.81,17.66,24.32,20.2z"/>
		</g>
	</g>
	<g>
		
			<linearGradient id="SVGID_00000121963928617351062450000015659063664222850482_" gradientUnits="userSpaceOnUse" x1="206.5809" y1="-87.3531" x2="50.3788" y2="39.2245">
			<stop  offset="0" style="stop-color:#7F53D3"/>
			<stop  offset="0.3223" style="stop-color:#7278E5"/>
			<stop  offset="0.662" style="stop-color:#88CEE8"/>
			<stop  offset="1" style="stop-color:#F2E2AE"/>
		</linearGradient>
		<path style="fill:url(#SVGID_00000121963928617351062450000015659063664222850482_);" d="M69.86,30.97c1.24,0,2.3-0.21,3.19-0.62
			c0.89-0.41,1.82-1.08,2.79-1.99l2.31,2.37c-2.25,2.49-4.98,3.74-8.19,3.74c-3.21,0-5.87-1.03-7.99-3.1
			c-2.12-2.07-3.17-4.68-3.17-7.84c0-3.16,1.08-5.79,3.24-7.9c2.16-2.11,4.88-3.16,8.17-3.16c3.29,0,6.04,1.22,8.25,3.65l-2.28,2.49
			c-1.01-0.97-1.97-1.65-2.87-2.04c-0.9-0.38-1.96-0.58-3.17-0.58c-2.15,0-3.95,0.69-5.41,2.08c-1.46,1.39-2.19,3.16-2.19,5.32
			c0,2.16,0.72,3.96,2.17,5.41C66.16,30.24,67.87,30.97,69.86,30.97z"/>
		
			<linearGradient id="SVGID_00000027581132468652572320000007019759543025084308_" gradientUnits="userSpaceOnUse" x1="215.68" y1="-76.1243" x2="59.4779" y2="50.4532">
			<stop  offset="0" style="stop-color:#7F53D3"/>
			<stop  offset="0.3223" style="stop-color:#7278E5"/>
			<stop  offset="0.662" style="stop-color:#88CEE8"/>
			<stop  offset="1" style="stop-color:#F2E2AE"/>
		</linearGradient>
		<path style="fill:url(#SVGID_00000027581132468652572320000007019759543025084308_);" d="M95.56,32.05
			c-1.62,1.61-3.65,2.41-6.08,2.41s-4.46-0.8-6.08-2.41c-1.62-1.61-2.43-3.58-2.43-5.91c0-2.33,0.81-4.3,2.43-5.91
			c1.62-1.61,3.65-2.42,6.08-2.42s4.46,0.81,6.08,2.42c1.62,1.61,2.43,3.58,2.43,5.91C97.99,28.47,97.18,30.44,95.56,32.05z
			 M85.82,29.95c0.96,0.98,2.18,1.47,3.66,1.47c1.48,0,2.7-0.49,3.66-1.47c0.96-0.98,1.44-2.25,1.44-3.81
			c0-1.56-0.48-2.83-1.44-3.81c-0.96-0.98-2.18-1.47-3.66-1.47c-1.48,0-2.7,0.49-3.66,1.47c-0.96,0.98-1.44,2.25-1.44,3.81
			C84.38,27.7,84.86,28.97,85.82,29.95z"/>
		
			<linearGradient id="SVGID_00000176044802916669489160000005703756899964966325_" gradientUnits="userSpaceOnUse" x1="223.5307" y1="-66.4362" x2="67.3286" y2="60.1413">
			<stop  offset="0" style="stop-color:#7F53D3"/>
			<stop  offset="0.3223" style="stop-color:#7278E5"/>
			<stop  offset="0.662" style="stop-color:#88CEE8"/>
			<stop  offset="1" style="stop-color:#F2E2AE"/>
		</linearGradient>
		<path style="fill:url(#SVGID_00000176044802916669489160000005703756899964966325_);" d="M105.25,25.47v8.75h-3.4V18.06h3.4V21
			c0.55-0.99,1.3-1.77,2.26-2.34c0.96-0.57,2-0.85,3.11-0.85c1.82,0,3.3,0.56,4.42,1.67c1.12,1.11,1.69,2.72,1.69,4.83v9.9h-3.4
			v-8.87c0-2.98-1.24-4.47-3.71-4.47c-1.17,0-2.2,0.39-3.07,1.17C105.68,22.83,105.25,23.97,105.25,25.47z"/>
		
			<linearGradient id="SVGID_00000000187867545741794790000004402544647700315291_" gradientUnits="userSpaceOnUse" x1="231.3092" y1="-56.8374" x2="75.107" y2="69.7402">
			<stop  offset="0" style="stop-color:#7F53D3"/>
			<stop  offset="0.3223" style="stop-color:#7278E5"/>
			<stop  offset="0.662" style="stop-color:#88CEE8"/>
			<stop  offset="1" style="stop-color:#F2E2AE"/>
		</linearGradient>
		<path style="fill:url(#SVGID_00000000187867545741794790000004402544647700315291_);" d="M124.87,25.47v8.75h-3.4V18.06h3.4V21
			c0.55-0.99,1.3-1.77,2.26-2.34c0.96-0.57,2-0.85,3.11-0.85c1.82,0,3.3,0.56,4.42,1.67c1.12,1.11,1.69,2.72,1.69,4.83v9.9h-3.4
			v-8.87c0-2.98-1.24-4.47-3.71-4.47c-1.17,0-2.2,0.39-3.07,1.17C125.31,22.83,124.87,23.97,124.87,25.47z"/>
		
			<linearGradient id="SVGID_00000114047014922103241990000000076443605270090656_" gradientUnits="userSpaceOnUse" x1="239.0663" y1="-47.2648" x2="82.8641" y2="79.3128">
			<stop  offset="0" style="stop-color:#7F53D3"/>
			<stop  offset="0.3223" style="stop-color:#7278E5"/>
			<stop  offset="0.662" style="stop-color:#88CEE8"/>
			<stop  offset="1" style="stop-color:#F2E2AE"/>
		</linearGradient>
		<path style="fill:url(#SVGID_00000114047014922103241990000000076443605270090656_);" d="M148.45,17.81c2.21,0,4.04,0.61,5.5,1.84
			c1.46,1.23,2.2,2.82,2.22,4.78l0.03,0.06l-11.79,4.95c1.05,1.3,2.49,1.94,4.3,1.94c1.81,0,3.31-0.71,4.48-2.13l2.01,2.22
			c-1.92,1.99-4.19,2.98-6.8,2.98c-2.29,0-4.25-0.76-5.89-2.28c-1.64-1.52-2.46-3.52-2.46-6.01c0-1.72,0.43-3.24,1.28-4.54
			c0.85-1.31,1.9-2.27,3.16-2.89C145.72,18.12,147.05,17.81,148.45,17.81z M143.31,26.23c0,0.26,0.01,0.46,0.03,0.58l8.96-3.86
			c-0.69-1.34-1.91-2-3.68-2c-1.34,0-2.56,0.47-3.66,1.4C143.86,23.27,143.31,24.57,143.31,26.23z"/>
		
			<linearGradient id="SVGID_00000011000095813389125650000008315251549374533001_" gradientUnits="userSpaceOnUse" x1="248.56" y1="-35.5491" x2="92.3579" y2="91.0285">
			<stop  offset="0" style="stop-color:#7F53D3"/>
			<stop  offset="0.3223" style="stop-color:#7278E5"/>
			<stop  offset="0.662" style="stop-color:#88CEE8"/>
			<stop  offset="1" style="stop-color:#F2E2AE"/>
		</linearGradient>
		<path style="fill:url(#SVGID_00000011000095813389125650000008315251549374533001_);" d="M171.66,29.3
			c-1.34,1.38-2.76,2.07-4.27,2.07c-1.51,0-2.78-0.52-3.81-1.55c-1.03-1.03-1.55-2.29-1.55-3.78c0-1.49,0.52-2.7,1.56-3.65
			c0.87-0.79,1.88-1.24,3.01-1.37c0.17-0.02,30.73-0.03,30.91-0.04v-3.16c-0.18,0-30.74,0.01-30.92,0.02
			c-2.11,0.14-3.92,0.91-5.43,2.3c-1.69,1.55-2.54,3.56-2.54,6.03c0,2.47,0.81,4.47,2.43,6c1.62,1.53,3.55,2.29,5.8,2.29
			c2.57,0,4.84-0.99,6.8-2.98L171.66,29.3z"/>
		
			<linearGradient id="SVGID_00000156546450856096400560000004157058615671882661_" gradientUnits="userSpaceOnUse" x1="250.6341" y1="-32.9895" x2="94.432" y2="93.588">
			<stop  offset="0" style="stop-color:#7F53D3"/>
			<stop  offset="0.3223" style="stop-color:#7278E5"/>
			<stop  offset="0.662" style="stop-color:#88CEE8"/>
			<stop  offset="1" style="stop-color:#F2E2AE"/>
		</linearGradient>
		<path style="fill:url(#SVGID_00000156546450856096400560000004157058615671882661_);" d="M180.43,20.79v8.2
			c0,0.77,0.2,1.38,0.61,1.84c0.4,0.46,0.97,0.68,1.7,0.68s1.43-0.35,2.1-1.06l1.4,2.4c-1.2,1.07-2.52,1.61-3.96,1.61
			c-1.45,0-2.68-0.5-3.71-1.5c-1.02-1-1.53-2.35-1.53-4.06V12.98h3.4v5.07h4.25v2.73H180.43z"/>
		
			<linearGradient id="SVGID_00000000940523135277357130000005711784546644423348_" gradientUnits="userSpaceOnUse" x1="255.2938" y1="-27.2393" x2="99.0917" y2="99.3383">
			<stop  offset="0" style="stop-color:#7F53D3"/>
			<stop  offset="0.3223" style="stop-color:#7278E5"/>
			<stop  offset="0.662" style="stop-color:#88CEE8"/>
			<stop  offset="1" style="stop-color:#F2E2AE"/>
		</linearGradient>
		<path style="fill:url(#SVGID_00000000940523135277357130000005711784546644423348_);" d="M192.19,20.79v8.2
			c0,0.77,0.2,1.38,0.61,1.84c0.4,0.46,0.97,0.68,1.7,0.68s1.43-0.35,2.1-1.06l1.4,2.4c-1.2,1.07-2.52,1.61-3.96,1.61
			c-1.45,0-2.68-0.5-3.71-1.5c-1.02-1-1.53-2.35-1.53-4.06V12.98h3.4v5.07h4.25v2.73H192.19z"/>
		
			<linearGradient id="SVGID_00000183948009426449607030000013921090138483771563_" gradientUnits="userSpaceOnUse" x1="262.7116" y1="-18.0854" x2="106.5095" y2="108.4922">
			<stop  offset="0" style="stop-color:#7F53D3"/>
			<stop  offset="0.3223" style="stop-color:#7278E5"/>
			<stop  offset="0.662" style="stop-color:#88CEE8"/>
			<stop  offset="1" style="stop-color:#F2E2AE"/>
		</linearGradient>
		<path style="fill:url(#SVGID_00000183948009426449607030000013921090138483771563_);" d="M214.21,32.05
			c-1.62,1.61-3.65,2.41-6.08,2.41c-2.43,0-4.46-0.8-6.08-2.41c-1.62-1.61-2.43-3.58-2.43-5.91c0-2.33,0.81-4.3,2.43-5.91
			c1.62-1.61,3.65-2.42,6.08-2.42c2.43,0,4.46,0.81,6.08,2.42c1.62,1.61,2.43,3.58,2.43,5.91
			C216.64,28.47,215.83,30.44,214.21,32.05z M204.48,29.95c0.96,0.98,2.18,1.47,3.66,1.47c1.48,0,2.7-0.49,3.66-1.47
			c0.96-0.98,1.44-2.25,1.44-3.81c0-1.56-0.48-2.83-1.44-3.81s-2.18-1.47-3.66-1.47c-1.48,0-2.7,0.49-3.66,1.47
			c-0.96,0.98-1.44,2.25-1.44,3.81C203.03,27.7,203.51,28.97,204.48,29.95z"/>
		
			<linearGradient id="SVGID_00000020370349835417420050000006775536791479561118_" gradientUnits="userSpaceOnUse" x1="271.2864" y1="-7.5037" x2="115.0843" y2="119.0739">
			<stop  offset="0" style="stop-color:#7F53D3"/>
			<stop  offset="0.3223" style="stop-color:#7278E5"/>
			<stop  offset="0.662" style="stop-color:#88CEE8"/>
			<stop  offset="1" style="stop-color:#F2E2AE"/>
		</linearGradient>
		<path style="fill:url(#SVGID_00000020370349835417420050000006775536791479561118_);" d="M220.7,33.79
			c-0.44-0.44-0.65-0.98-0.65-1.61c0-0.63,0.22-1.16,0.65-1.59c0.44-0.44,0.97-0.65,1.59-0.65c0.63,0,1.16,0.22,1.61,0.65
			c0.44,0.44,0.67,0.97,0.67,1.59c0,0.63-0.22,1.17-0.67,1.61c-0.45,0.45-0.98,0.67-1.61,0.67
			C221.67,34.46,221.13,34.24,220.7,33.79z"/>
		
			<linearGradient id="SVGID_00000035523213424593254120000011913707986099752354_" gradientUnits="userSpaceOnUse" x1="274.793" y1="-3.1764" x2="118.5909" y2="123.4012">
			<stop  offset="0" style="stop-color:#7F53D3"/>
			<stop  offset="0.3223" style="stop-color:#7278E5"/>
			<stop  offset="0.662" style="stop-color:#88CEE8"/>
			<stop  offset="1" style="stop-color:#F2E2AE"/>
		</linearGradient>
		<path style="fill:url(#SVGID_00000035523213424593254120000011913707986099752354_);" d="M230.25,32.15
			c-1.52-1.54-2.28-3.56-2.28-6.08c0-2.51,0.78-4.52,2.34-6.01c1.56-1.5,3.4-2.25,5.53-2.25c2.13,0,3.88,1.01,5.26,3.04v-2.79h3.4
			v16.16h-3.4v-2.64c-0.65,0.93-1.47,1.65-2.48,2.14c-1,0.5-2.01,0.74-3.02,0.74C233.55,34.46,231.77,33.69,230.25,32.15z
			 M231.38,26.21c0,1.55,0.5,2.81,1.49,3.78c0.99,0.97,2.16,1.46,3.49,1.46c1.34,0,2.47-0.49,3.4-1.47c0.93-0.98,1.4-2.24,1.4-3.78
			c0-1.54-0.47-2.82-1.4-3.86c-0.93-1.03-2.08-1.55-3.43-1.55c-1.36,0-2.52,0.52-3.49,1.55C231.86,23.37,231.38,24.66,231.38,26.21z
			"/>
		
			<linearGradient id="SVGID_00000080906114968145112820000001336011258915508652_" gradientUnits="userSpaceOnUse" x1="278.2569" y1="1.0981" x2="122.0547" y2="127.6757">
			<stop  offset="0" style="stop-color:#7F53D3"/>
			<stop  offset="0.3223" style="stop-color:#7278E5"/>
			<stop  offset="0.662" style="stop-color:#88CEE8"/>
			<stop  offset="1" style="stop-color:#F2E2AE"/>
		</linearGradient>
		<path style="fill:url(#SVGID_00000080906114968145112820000001336011258915508652_);" d="M249.63,14.84
			c-0.43-0.43-0.64-0.93-0.64-1.52c0-0.59,0.21-1.09,0.64-1.52c0.43-0.43,0.93-0.64,1.52-0.64c0.59,0,1.09,0.21,1.52,0.64
			c0.43,0.43,0.64,0.93,0.64,1.52c0,0.59-0.21,1.09-0.64,1.52c-0.43,0.43-0.93,0.64-1.52,0.64
			C250.56,15.48,250.06,15.26,249.63,14.84z M252.82,34.22h-3.4V18.06h3.4V34.22z"/>
	</g>
</g>
</svg>
