<svg xmlns="http://www.w3.org/2000/svg" xmlns:xlink="http://www.w3.org/1999/xlink" width="200" height="200" viewBox="0 0 200 200">
  <defs>
    <clipPath id="clip-Analyse_your">
      <rect width="200" height="200"/>
    </clipPath>
  </defs>
  <g id="Analyse_your" data-name="Analyse your" clip-path="url(#clip-Analyse_your)">
    <rect width="200" height="200" fill="rgba(255,255,255,0)"/>
    <g id="Group_25" data-name="Group 25" transform="translate(-971.114 -234.489)">
      <path id="Path_7" data-name="Path 7" d="M1088.4,246.49v21.054c0,6.689-.018,13.379.008,20.069.019,4.993,1.835,6.824,6.758,6.829q19,.02,38.009,0h3.516c.055,1.209.138,2.19.138,3.17q.01,58.533,0,117.066c0,5.405-1.622,7-7.1,7q-58.23,0-116.459,0c-5.573,0-7.16-1.614-7.161-7.285q0-80.274,0-160.549c0-5.825,1.546-7.363,7.384-7.364q35.576,0,71.152,0Zm-57.483,45.052c-4.147-.04-6.292,2.989-5.369,7.059,1.546,6.809,3.036,13.638,4.87,20.372a41.769,41.769,0,0,0,38.5,30.95c14.949.773,26.7,10.714,30.166,25.489q2.7,11.528,5.466,23.041c.848,3.509,3.436,5.329,6.31,4.576,3.024-.792,4.413-3.377,3.592-6.92q-2.71-11.683-5.517-23.342c-4.583-18.985-19.272-31.505-38.725-33.05-16.417-1.3-27.022-10.51-30.733-26.637-1.293-5.621-2.661-11.225-3.981-16.839C1034.851,293.5,1033.353,291.706,1030.916,291.542Zm23.754,86.6a15.362,15.362,0,1,0,15.216-15.369A15.461,15.461,0,0,0,1054.67,378.142Zm21.747-69.923c2.358-2.125,3.8-3.261,5.044-4.582,2.352-2.495,2.406-5.5.279-7.571s-5.059-1.947-7.574.471c-1.353,1.3-2.526,2.79-3.855,4.277-1.235-1.172-1.97-1.855-2.689-2.555s-1.394-1.479-2.162-2.134c-2.42-2.064-5.384-1.993-7.362.129a4.905,4.905,0,0,0,.219,7.1,64.293,64.293,0,0,0,5.582,4.531,66.847,66.847,0,0,0-5.53,4.5c-2.252,2.312-2.192,5.254-.1,7.309a4.92,4.92,0,0,0,7.3-.224,38.444,38.444,0,0,0,3.565-4.914l1.526.5a53.732,53.732,0,0,0,3.506,4.18c2.487,2.445,5.409,2.572,7.547.506,2.218-2.142,2.13-5.215-.44-7.777A51.176,51.176,0,0,0,1076.417,308.219Z" transform="translate(0 0)" fill="#fff"/>
      <path id="Path_8" data-name="Path 8" d="M1158.366,286.384c-.052-1.156-.134-2.147-.135-3.137-.01-10.284-.006-20.568-.006-30.493l34.019,33.63Z" transform="translate(-59.583 -2.454)" fill="#fff"/>
      <path id="Path_9" data-name="Path 9" d="M1107.967,464.817a5.127,5.127,0,0,1-.13-10.252,5.126,5.126,0,1,1,.13,10.252Z" transform="translate(-37.887 -81.506)" fill="#fff"/>
    </g>
  </g>
</svg>
