<svg xmlns="http://www.w3.org/2000/svg" xmlns:xlink="http://www.w3.org/1999/xlink" width="200" height="200" viewBox="0 0 200 200">
  <defs>
    <clipPath id="clip-Know_your_Rank">
      <rect width="200" height="200"/>
    </clipPath>
  </defs>
  <g id="Know_your_Rank" data-name="Know your Rank" clip-path="url(#clip-Know_your_Rank)">
    <rect width="200" height="200" fill="rgba(255,255,255,0)"/>
    <g id="Group_23" data-name="Group 23" transform="translate(-537.921 -233.77)">
      <path id="Path_1" data-name="Path 1" d="M635.642,437.361c0-10.371-.017-20.741.007-31.11.011-4.876,1.926-6.794,6.807-6.8q25.818-.028,51.637,0c4.89.005,6.82,1.918,6.824,6.782q.027,31.272,0,62.542c0,4.51-2.162,6.758-6.645,6.77q-25.979.067-51.958,0c-4.493-.012-6.648-2.254-6.661-6.754C635.622,458.314,635.642,447.837,635.642,437.361Z" transform="translate(-30.339 -54.675)" fill="#fff"/>
      <path id="Path_2" data-name="Path 2" d="M706.557,282.284a17.814,17.814,0,0,1-2.405,3.684c-4.9,4.926-9.909,9.743-14.966,14.508a4.365,4.365,0,0,0-1.449,4.514c1.336,7.029,2.454,14.1,3.695,21.147.45,2.557.49,5.03-1.972,6.59-2.368,1.5-4.85,1.262-7.3-.071-6.2-3.369-12.367-6.794-18.676-9.939a5.979,5.979,0,0,0-4.612-.019c-6.46,3.078-12.79,6.431-19.141,9.734-2.018,1.049-3.969,1.607-5.983.063a5.775,5.775,0,0,1-2.373-6.159c1.329-7.141,2.4-14.33,3.78-21.459a4.9,4.9,0,0,0-1.863-5.254c-5-4.353-9.793-8.932-14.74-13.342-2.087-1.861-3.259-3.9-2.437-6.764.862-3,3.273-3.664,5.915-4.058,6.974-1.043,13.964-2.005,20.9-3.258a5.633,5.633,0,0,0,3.5-2.589c3.218-6.15,6.22-12.417,9.178-18.7,1.147-2.437,2.716-4.127,5.521-4.143,2.785-.016,4.431,1.563,5.591,4.031,2.953,6.284,5.949,12.554,9.189,18.693a6.005,6.005,0,0,0,3.749,2.711c7.041,1.281,14.143,2.22,21.217,3.321C704.691,276.119,706.6,278.1,706.557,282.284Z" transform="translate(-23.254 0)" fill="#fff"/>
      <path id="Path_3" data-name="Path 3" d="M595,489.538a12.655,12.655,0,0,1-1.8.251c-11.873.015-23.746.049-35.62-.008-4.519-.022-6.6-2.182-6.62-6.8q-.066-18.612.005-37.224c.019-4.548,1.931-6.478,6.454-6.5,11.338-.058,22.678.04,34.015-.071,2.426-.024,3.094.785,3.077,3.137-.094,12.943-.073,25.886-.021,38.829C594.495,483.808,594.8,486.461,595,489.538Z" transform="translate(0 -68.912)" fill="#fff"/>
      <path id="Path_4" data-name="Path 4" d="M754.208,493.538c0-13.4.089-26.521-.068-39.64-.035-2.972.84-3.8,3.777-3.754,10.8.164,21.607.054,32.411.071,5.584.008,7.375,1.74,7.392,7.218q.047,14.6,0,29.2c-.019,5-2.044,7.06-7,7.077-11.553.039-23.106.018-34.659,0A13.972,13.972,0,0,1,754.208,493.538Z" transform="translate(-72.78 -72.835)" fill="#fff"/>
    </g>
  </g>
</svg>
