<svg xmlns="http://www.w3.org/2000/svg" xmlns:xlink="http://www.w3.org/1999/xlink" width="200" height="200" viewBox="0 0 200 200">
  <defs>
    <clipPath id="clip-Prepared_by_prof">
      <rect width="200" height="200"/>
    </clipPath>
  </defs>
  <g id="Prepared_by_prof" data-name="Prepared by prof" clip-path="url(#clip-Prepared_by_prof)">
    <rect width="200" height="200" fill="rgba(255,255,255,0)"/>
    <g id="Group_24" data-name="Group 24" transform="translate(-51.788 -228.576)">
      <path id="Path_5" data-name="Path 5" d="M128.254,347.969c-4.241-4.923-8.344-8.067-14.866-7.289-5.04.6-10.246.079-15.358-.252-5.058-.328-7.24-2.591-6.9-7.517,1.63-23.416,6.75-45.943,19.366-66.05,14.322-22.826,42.621-29.818,65.586-16.736a50.329,50.329,0,0,1,18.613,18.8c9.212,15.741,13.849,33,16.685,50.831a122.377,122.377,0,0,1,1.28,12.634c.292,5.408-1.684,7.728-7.038,8.051-5.559.335-11.206.846-16.7.231-6.379-.714-10.006,2.847-14.5,7.3,4.808,0,8.868-.026,12.928,0,18.223.138,37.11,15.424,40.957,33.228a33.3,33.3,0,0,1,.615,6.635c.076,6.913-.027,13.828.053,20.74.034,2.932-1.173,4.4-4.147,4.327-.78-.019-1.561,0-2.342,0q-70.6,0-141.191,0c-6.351,0-6.5-.154-6.5-6.636,0-6.356.1-12.713-.009-19.067-.347-19.769,19.243-40.514,39.809-39.273C118.983,348.195,123.394,347.969,128.254,347.969Zm28.7-55.5a45.839,45.839,0,0,1-24.23-19.4,5.9,5.9,0,0,0-1,.821c-4.661,6.8-10.412,12.151-18.62,14.426a3.074,3.074,0,0,0-1.617,2.4c.178,6.33-.341,12.862,1.054,18.941,4.305,18.759,16.665,30.973,33.711,38.958,3.943,1.847,7.675,1.554,11.591-.152,7.94-3.458,14.115-9.234,20.361-14.964,11.3-10.367,15.429-23.349,14.1-38.342-.026-.3-.284-.572-.516-1.017l-1.874.411c-.617,4.109-.894,7.877-1.8,11.488-1.137,4.545-4.056,6.617-8.761,6.75-3.676.1-7.357.03-11.035.031-8.324,0-10.559-1.655-13.537-9.545a4.384,4.384,0,0,0-2.735-2.008c-1.989-.558-2.779.63-3.413,2.535-1.482,4.458-3.625,8.681-9.13,8.942-5.227.248-10.478.158-15.713.005a7.969,7.969,0,0,1-7.956-6.012,37.3,37.3,0,0,1-1.5-8.51c-.217-4.219,2.234-6.764,6.456-6.837,7.021-.122,14.052-.193,21.062.1a9.772,9.772,0,0,1,5.59,2.436C150.926,297.032,154.295,296.762,156.951,292.464Zm32.133,83.107c-.8-1.545-1.242-2.52-1.783-3.437q-4.415-7.488-8.874-14.949c-2.4-4.018-6.626-4.1-9.089-.2q-7.666,12.162-15.322,24.331c-.618.979-1.317,1.908-2.232,3.223-5.94-9.423-11.579-18.362-17.213-27.3-2.625-4.165-6.766-4.184-9.258-.021q-3.692,6.169-7.339,12.363c-1.042,1.773-2.014,3.586-3.359,5.992,6.342,0,11.987.094,17.628-.043a7.559,7.559,0,0,1,6.217,2.408c3.535,3.709,7.4,7.105,10.961,10.79,1.84,1.9,3.176,1.791,4.962-.037,3.582-3.667,7.414-7.091,10.972-10.779a7.22,7.22,0,0,1,5.887-2.389C176.987,375.678,182.74,375.571,189.084,375.571Zm-16.54-78.858c-3.232,0-6.472-.12-9.693.071-1.007.06-2.515.725-2.852,1.515-1.614,3.773,2.222,9.132,6.378,9.165,3.121.025,6.242.006,9.363.006,6.942,0,7.132-.163,8.212-7.01.07-.44.1-.885.163-1.327.224-1.684-.435-2.474-2.209-2.437C178.787,296.762,175.665,296.715,172.544,296.713Zm-40.941-.006h-6.016c-6.755,0-6.669-.019-5.219,6.649.65,2.992,2.046,4.353,5.257,4.169,4.109-.235,8.241-.006,12.363-.074,3.758-.062,7.475-6.1,5.695-9.412a3.691,3.691,0,0,0-2.723-1.266C137.847,296.616,134.723,296.715,131.6,296.707Z" transform="translate(0 0)" fill="#fff"/>
      <path id="Path_6" data-name="Path 6" d="M184.868,370.364c2.109,0,4.224-.1,6.325.023,2.559.153,4.263,1.519,4.19,4.188-.068,2.5-1.742,3.8-4.166,3.843-4.327.084-8.66.111-12.985-.016-2.411-.071-4.024-1.439-4.024-3.969s1.613-3.854,4-4.031C180.419,370.238,182.648,370.367,184.868,370.364Z" transform="translate(-32.914 -41.959)" fill="#fff"/>
    </g>
  </g>
</svg>
