<?xml version="1.0" encoding="utf-8"?>
<!-- Generator: Adobe Illustrator 25.4.1, SVG Export Plug-In . SVG Version: 6.00 Build 0)  -->
<svg version="1.1" id="Layer_1" xmlns="http://www.w3.org/2000/svg" xmlns:xlink="http://www.w3.org/1999/xlink" x="0px" y="0px"
	 viewBox="0 0 200 31.51" style="enable-background:new 0 0 200 31.51;" xml:space="preserve">
<style type="text/css">
	.st0{fill:#F7F7F7;}
	.st1{fill:#FFC900;}
	.st2{fill:#C6C4BD;}
	.st3{fill:#35CE24;}
	.st4{fill:#FFFFFF;}
</style>
<g>
	<path class="st0" d="M26.51,11.1c-1.96-3.75-5.88-6.31-10.4-6.31c-6.48,0-11.73,5.25-11.73,11.73S9.63,28.24,16.1,28.24
		c4.63,0,8.63-2.68,10.53-6.57l-5.35-5.35L26.51,11.1z"/>
	<path class="st0" d="M39.37,11.09l5.23,5.23l-5.36,5.36c1.92,4,6.01,6.36,10.75,6.36V4.99C45.36,4.99,41.35,7.24,39.37,11.09z"/>
	<path class="st0" d="M39.37,11.09l-6.43-6.43l-6.44,6.44c0.84,1.62,1.32,3.46,1.32,5.41c0,1.85-0.43,3.6-1.19,5.15l6.31,6.31
		l6.3-6.3c-0.75-1.56-1.17-3.31-1.17-5.16C38.07,14.56,38.54,12.72,39.37,11.09z"/>
	<path class="st1" d="M26.51,11.1l-5.21,5.21l5.35,5.35c0.76-1.56,1.19-3.3,1.19-5.15C27.83,14.56,27.35,12.72,26.51,11.1z"/>
	<path class="st2" d="M26.51,11.1l-5.21,5.21l5.35,5.35c0.76-1.56,1.19-3.3,1.19-5.15C27.83,14.56,27.35,12.72,26.51,11.1z"/>
	<path class="st3" d="M39.37,11.09c-0.83,1.63-1.3,3.47-1.3,5.42c0,1.85,0.42,3.6,1.17,5.16l5.36-5.36L39.37,11.09z"/>
	<path class="st2" d="M39.37,11.09c-0.83,1.63-1.3,3.47-1.3,5.42c0,1.85,0.42,3.6,1.17,5.16l5.36-5.36L39.37,11.09z"/>
	<g>
		<path class="st4" d="M59.32,12.11h2.85l2.23,5.93l2.2-5.93h2.8v9.54h-2.15v-6.69l-2.64,6.69h-0.71l-2.65-6.69v6.69h-1.93V12.11z"
			/>
		<path class="st4" d="M73.65,16.94v-0.11c0-2.84,2.08-4.85,4.91-4.85c2.87,0,4.91,1.93,4.91,4.8v0.11c0,2.84-1.95,4.91-4.92,4.91
			C75.56,21.79,73.65,19.73,73.65,16.94z M81.22,16.91v-0.11c0-1.85-0.99-3.12-2.65-3.12c-1.65,0-2.65,1.21-2.65,3.13v0.11
			c0,1.95,1.12,3.15,2.68,3.15C80.2,20.07,81.22,18.83,81.22,16.91z"/>
		<path class="st4" d="M87.21,16.94v-0.11c0-2.89,2.03-4.87,4.73-4.87c2.29,0,4,1.12,4.23,3.47h-2.21c-0.16-1.15-0.8-1.76-2-1.76
			c-1.51,0-2.47,1.17-2.47,3.15v0.11c0,1.97,0.91,3.12,2.48,3.12c1.19,0,2.01-0.6,2.19-1.83h2.12c-0.24,2.36-1.93,3.57-4.28,3.57
			C88.88,21.79,87.21,19.87,87.21,16.94z"/>
		<path class="st4" d="M100.35,12.11h2.16v4.11l3.33-4.12h2.29l-3.77,4.52l3.96,5.03h-2.52l-3.29-4.28v4.28h-2.16V12.11z"/>
		<path class="st4" d="M119.67,13.79h-2.57v-1.68h7.32v1.68h-2.57v7.85h-2.17V13.79z"/>
		<path class="st4" d="M128.44,12.11h6.21v1.68h-4.07v2.23h3.25v1.57h-3.25v2.37h4.28v1.68h-6.43V12.11z"/>
		<path class="st4" d="M138.44,18.66h2.07c0.09,0.85,0.45,1.56,1.87,1.56c0.95,0,1.57-0.52,1.57-1.27c0-0.76-0.4-1.03-1.8-1.24
			c-2.44-0.32-3.44-1.05-3.44-2.89c0-1.63,1.36-2.84,3.47-2.84c2.15,0,3.4,0.96,3.57,2.85h-1.99c-0.13-0.87-0.64-1.27-1.59-1.27
			c-0.95,0-1.43,0.44-1.43,1.08c0,0.68,0.31,1,1.77,1.21c2.31,0.29,3.49,0.92,3.49,2.89c0,1.69-1.39,3.04-3.64,3.04
			C139.76,21.79,138.56,20.57,138.44,18.66z"/>
		<path class="st4" d="M151.85,13.79h-2.57v-1.68h7.32v1.68h-2.57v7.85h-2.17V13.79z"/>
		<path class="st4" d="M166.25,12.11h2.16v7.84h3.88v1.69h-6.04V12.11z"/>
		<path class="st4" d="M178.84,12.11h2.81l3.09,9.54h-2.25l-0.65-2.12h-3.45l-0.65,2.12h-2.03L178.84,12.11z M178.85,17.99h2.52
			l-1.25-4.12L178.85,17.99z"/>
		<path class="st4" d="M188.73,12.11h3.75c2.08,0,3.16,0.85,3.16,2.48v0.05c0,1-0.48,1.73-1.55,2.04c1.24,0.25,1.91,0.96,1.91,2.24
			v0.05c0,1.75-1.15,2.67-3.35,2.67h-3.92V12.11z M192.13,16.03c1.04,0,1.45-0.37,1.45-1.23v-0.05c0-0.8-0.45-1.16-1.47-1.16h-1.28
			v2.44H192.13z M192.32,20.15c1.07,0,1.55-0.48,1.55-1.35v-0.05c0-0.88-0.48-1.33-1.65-1.33h-1.37v2.73H192.32z"/>
	</g>
</g>
</svg>
