<?xml version="1.0" encoding="utf-8"?>
<!-- Generator: Adobe Illustrator 25.4.1, SVG Export Plug-In . SVG Version: 6.00 Build 0)  -->
<svg version="1.1" id="Layer_1" xmlns="http://www.w3.org/2000/svg" xmlns:xlink="http://www.w3.org/1999/xlink" x="0px" y="0px"
	 viewBox="0 0 250 31.51" style="enable-background:new 0 0 197.38 27.57;" xml:space="preserve">
<style type="text/css">
	.st0{fill:#FFC900;}
	.st1{fill:#35CE24;}
	.st2{fill:#1C6DD0;}
	.st3{fill:#FFFFFF;}
</style>
<g>
	<g>
		<path class="st0" d="M25.61,9c-1.95-3.73-5.85-6.28-10.35-6.28C8.82,2.72,3.6,7.94,3.6,14.38s5.22,11.67,11.67,11.67
			c4.6,0,8.58-2.67,10.48-6.54l-5.32-5.32L25.61,9z"/>
		<path class="st1" d="M38.41,8.99l5.2,5.2l-5.33,5.33c1.91,3.98,5.98,6.33,10.69,6.33V2.92C44.37,2.92,40.38,5.15,38.41,8.99z"/>
		<path class="st2" d="M38.41,8.99l-6.4-6.4L25.61,9c0.84,1.61,1.32,3.44,1.32,5.38c0,1.84-0.43,3.58-1.19,5.13l6.27,6.27l6.26-6.26
			c-0.75-1.55-1.17-3.3-1.17-5.14C37.12,12.44,37.59,10.61,38.41,8.99z"/>
		<path class="st0" d="M25.61,9l-5.19,5.19l5.32,5.32c0.76-1.55,1.19-3.29,1.19-5.13C26.93,12.44,26.45,10.61,25.61,9z"/>
		<path class="st2" d="M25.61,9l-5.19,5.19l5.32,5.32c0.76-1.55,1.19-3.29,1.19-5.13C26.93,12.44,26.45,10.61,25.61,9z"/>
		<path class="st1" d="M38.41,8.99c-0.83,1.62-1.3,3.45-1.3,5.39c0,1.84,0.42,3.58,1.17,5.14l5.33-5.33L38.41,8.99z"/>
		<path class="st2" d="M38.41,8.99c-0.83,1.62-1.3,3.45-1.3,5.39c0,1.84,0.42,3.58,1.17,5.14l5.33-5.33L38.41,8.99z"/>
	</g>
	<g>
		<path class="st3" d="M58.26,10h2.84l2.22,5.91L65.51,10h2.79v9.49h-2.14v-6.66l-2.63,6.66h-0.7l-2.64-6.66v6.66h-1.93V10z"/>
		<path class="st3" d="M72.52,14.8V14.7c0-2.83,2.07-4.83,4.88-4.83c2.85,0,4.89,1.92,4.89,4.78v0.11c0,2.83-1.94,4.89-4.9,4.89
			C74.41,19.64,72.52,17.58,72.52,14.8z M80.04,14.78v-0.11c0-1.84-0.98-3.11-2.64-3.11c-1.65,0-2.64,1.21-2.64,3.12v0.11
			c0,1.94,1.12,3.13,2.67,3.13C79.03,17.93,80.04,16.69,80.04,14.78z"/>
		<path class="st3" d="M86,14.8V14.7c0-2.88,2.02-4.85,4.71-4.85c2.28,0,3.98,1.12,4.21,3.45h-2.2c-0.16-1.14-0.8-1.75-1.99-1.75
			c-1.5,0-2.46,1.17-2.46,3.13v0.11c0,1.96,0.9,3.11,2.47,3.11c1.18,0,2-0.6,2.18-1.82h2.11c-0.24,2.35-1.92,3.56-4.26,3.56
			C87.66,19.64,86,17.73,86,14.8z"/>
		<path class="st3" d="M99.08,10h2.15v4.09l3.32-4.1h2.28l-3.76,4.5l3.94,5h-2.51l-3.28-4.26v4.26h-2.15V10z"/>
		<path class="st3" d="M118.3,11.67h-2.56V10h7.29v1.67h-2.56v7.82h-2.16V11.67z"/>
		<path class="st3" d="M127.02,10h6.19v1.67h-4.05v2.22h3.24v1.57h-3.24v2.36h4.26v1.67h-6.4V10z"/>
		<path class="st3" d="M136.97,16.52h2.06c0.09,0.85,0.45,1.55,1.86,1.55c0.94,0,1.57-0.52,1.57-1.26c0-0.76-0.4-1.02-1.79-1.23
			c-2.43-0.32-3.42-1.05-3.42-2.88c0-1.62,1.35-2.83,3.45-2.83c2.14,0,3.39,0.96,3.56,2.84h-1.98c-0.13-0.86-0.64-1.26-1.58-1.26
			s-1.42,0.44-1.42,1.08c0,0.68,0.3,1,1.77,1.21c2.3,0.29,3.48,0.92,3.48,2.88c0,1.69-1.38,3.03-3.62,3.03
			C138.29,19.64,137.09,18.42,136.97,16.52z"/>
		<path class="st3" d="M150.31,11.67h-2.56V10h7.29v1.67h-2.56v7.82h-2.16V11.67z"/>
		<path class="st3" d="M164.64,10h2.15v7.81h3.86v1.69h-6.01V10z"/>
		<path class="st3" d="M177.17,10h2.8l3.08,9.49h-2.24l-0.65-2.11h-3.44l-0.65,2.11h-2.02L177.17,10z M177.18,15.85h2.51l-1.25-4.1
			L177.18,15.85z"/>
		<path class="st3" d="M187,10h3.73c2.07,0,3.15,0.85,3.15,2.47v0.05c0,1-0.48,1.73-1.54,2.03c1.24,0.25,1.9,0.96,1.9,2.23v0.05
			c0,1.74-1.14,2.66-3.33,2.66H187V10z M190.39,13.9c1.04,0,1.45-0.37,1.45-1.22v-0.05c0-0.8-0.45-1.15-1.46-1.15h-1.27v2.43H190.39
			z M190.57,18.01c1.06,0,1.54-0.48,1.54-1.34v-0.05c0-0.88-0.48-1.33-1.65-1.33h-1.37v2.72H190.57z"/>
	</g>
</g>
<!-- Adding .Com -->
<text x="197" y="21.5" font-family="Arial black"  font-size="9" fill="#FF0000">.COM</text>
</svg>
